# xmcd
#
# Track frame offsets: 
#        167
#        17867
#        47647
#        61672
#        86500
#        104497
#        122685
#        139527
#        153105
#
# Disc length: 2273 seconds
#
# Revision: 3
# Processed by: cddbd v1.5.2PL0 Copyright (c) Steve Scherf et al.
# Submitted via: ExactAudioCopyFreeDBPlugin 1.0
#
DISCID=6808df09
DTITLE=David Bromberg - Sideman Serenade
DYEAR=1989
DGENRE=Folk/Rock
TTITLE0=Mobile Lil The Dancing Witch
TTITLE1=Testify
TTITLE2=Sideman's Samba
TTITLE3=Midnight Hour Blues
TTITLE4=Top Of The Slide
TTITLE5=Save The Last Dance For Me
TTITLE6=Watch Baby Fall
TTITLE7=Long Tall Mama
TTITLE8=Come All You Fair And Tender Maidens
EXTD=YEAR: 1989 ID3G: 0
EXTT0=
EXTT1=
EXTT2=
EXTT3=
EXTT4=
EXTT5=
EXTT6=
EXTT7=
EXTT8=
PLAYORDER=
